<svg xmlns="http://www.w3.org/2000/svg" xmlns:xlink="http://www.w3.org/1999/xlink" preserveAspectRatio="xMidYMid" width="68" height="68" viewBox="0 0 68 68">
  <defs>
    <style>

      .cls-2 {
        fill: #f3f871;
      }
    </style>
  </defs>
  <path d="M58.000,44.004 C58.000,44.004 44.004,58.000 44.004,58.000 C44.004,58.000 23.996,58.000 23.996,58.000 C23.996,58.000 10.000,44.004 10.000,44.004 C10.000,44.004 10.000,23.996 10.000,23.996 C10.000,23.996 23.996,10.000 23.996,10.000 C23.996,10.000 44.004,10.000 44.004,10.000 C44.004,10.000 58.000,23.996 58.000,23.996 C58.000,23.996 58.000,44.004 58.000,44.004 ZM34.000,-0.004 C34.000,-0.004 42.004,8.000 42.004,8.000 C42.004,8.000 25.996,8.000 25.996,8.000 C25.996,8.000 34.000,-0.004 34.000,-0.004 ZM8.000,25.996 C8.000,25.996 8.000,42.004 8.000,42.004 C8.000,42.004 -0.004,34.000 -0.004,34.000 C-0.004,34.000 8.000,25.996 8.000,25.996 ZM34.000,68.004 C34.000,68.004 25.996,60.000 25.996,60.000 C25.996,60.000 42.004,60.000 42.004,60.000 C42.004,60.000 34.000,68.004 34.000,68.004 ZM60.000,25.996 C60.000,25.996 68.004,34.000 68.004,34.000 C68.004,34.000 60.000,42.004 60.000,42.004 C60.000,42.004 60.000,25.996 60.000,25.996 Z" id="path-1" class="cls-2" fill-rule="evenodd"/>
</svg>
