<svg xmlns="http://www.w3.org/2000/svg" xmlns:xlink="http://www.w3.org/1999/xlink" preserveAspectRatio="xMidYMid" width="16" height="16" viewBox="0 0 16 16">
  <defs>
    <style>

      .cls-2 {
        fill: #f3f871;
      }
    </style>
  </defs>
  <path d="M8.000,16.001 C8.000,16.001 -0.001,8.000 -0.001,8.000 C-0.001,8.000 8.000,-0.001 8.000,-0.001 C8.000,-0.001 16.001,8.000 16.001,8.000 C16.001,8.000 8.000,16.001 8.000,16.001 ZM3.000,6.000 C3.000,6.000 2.000,6.000 2.000,6.000 C2.000,6.000 2.000,10.000 2.000,10.000 C2.000,10.000 3.000,10.000 3.000,10.000 C3.000,10.000 3.000,6.000 3.000,6.000 ZM10.000,2.000 C10.000,2.000 6.000,2.000 6.000,2.000 C6.000,2.000 6.000,3.000 6.000,3.000 C6.000,3.000 10.000,3.000 10.000,3.000 C10.000,3.000 10.000,2.000 10.000,2.000 ZM10.000,13.000 C10.000,13.000 6.000,13.000 6.000,13.000 C6.000,13.000 6.000,14.000 6.000,14.000 C6.000,14.000 10.000,14.000 10.000,14.000 C10.000,14.000 10.000,13.000 10.000,13.000 ZM13.000,6.000 C13.000,6.000 13.000,10.000 13.000,10.000 C13.000,10.000 14.000,10.000 14.000,10.000 C14.000,10.000 14.000,6.000 14.000,6.000 C14.000,6.000 13.000,6.000 13.000,6.000 Z" id="path-1" class="cls-2" fill-rule="evenodd"/>
</svg>
